<?xml version="1.0" standalone="no"?>
<!DOCTYPE svg PUBLIC "-//W3C//DTD SVG 20010904//EN"
 "http://www.w3.org/TR/2001/REC-SVG-20010904/DTD/svg10.dtd">
<svg version="1.0" xmlns="http://www.w3.org/2000/svg"
 width="182pt" height="182pt" viewBox="0 0 182 182"
 preserveAspectRatio="xMidYMid meet">
<metadata>
Created by potrace 1.10, written by Peter Selinger 2001-2011
</metadata>
<g transform="translate(0.000000,112.000000) scale(0.100000,-0.100000)"
fill="#a59453" stroke="none">
<path d="M940 1062 c-25 -15 -74 -49 -109 -75 -70 -52 -104 -58 -109 -19 -4
28 23 62 50 62 24 0 23 17 -2 25 -84 27 -150 -86 -89 -151 21 -23 30 -25 77
-22 50 5 56 8 141 91 73 72 94 87 120 87 28 0 31 -3 31 -30 0 -17 -25 -88 -54
-160 -68 -161 -86 -220 -86 -284 0 -64 17 -125 36 -133 29 -11 13 -31 -33 -42
-58 -14 -189 4 -298 41 l-70 23 3 42 c2 25 -3 54 -13 74 -20 39 -82 99 -101
99 -26 0 -13 15 29 35 110 52 129 214 30 260 -25 12 -52 16 -90 13 -54 -5 -64
-10 -225 -126 -42 -30 -72 -26 -76 11 -3 22 3 31 27 45 36 20 38 28 10 35 -88
23 -148 -120 -70 -166 60 -35 114 -15 202 78 92 96 148 117 194 70 50 -49 23
-165 -46 -200 -16 -9 -29 -12 -29 -8 0 3 -13 -7 -28 -25 -23 -25 -28 -27 -28
-12 0 10 4 16 8 14 4 -3 8 7 8 21 0 21 4 25 19 20 23 -7 51 46 51 97 0 28 -5
37 -25 46 -44 20 -50 16 -50 -41 0 -36 -11 -79 -36 -142 -20 -49 -40 -109 -44
-132 -5 -33 -11 -43 -25 -43 -28 0 -50 -39 -50 -86 0 -121 173 -177 286 -94
16 12 40 43 59 78 1 1 33 -12 71 -29 178 -81 317 -108 387 -74 46 21 48 49 11
113 -39 66 -30 134 45 364 64 193 71 236 45 262 -26 26 -101 20 -154 -12z
m-527 -398 c39 -44 66 -100 67 -136 0 -31 -15 -35 -45 -14 -11 7 -39 17 -62
21 -24 4 -43 10 -43 13 2 35 37 152 47 152 2 0 18 -16 36 -36z m547 -54 l-8
-65 1 78 c0 43 4 72 8 65 4 -7 3 -42 -1 -78z m-660 -69 c-15 -29 -12 -37 6
-15 15 18 15 18 10 -6 -3 -14 -6 -29 -6 -34 0 -17 -29 28 -30 46 0 13 8 22 28
27 1 1 -2 -8 -8 -18z m220 -40 c7 10 9 7 8 -11 -1 -35 -19 -70 -35 -70 -9 0
-13 8 -11 23 2 12 8 22 15 22 17 0 29 15 12 16 -8 1 -17 1 -21 1 -3 -1 -1 13
5 30 l12 31 3 -28 c3 -21 6 -25 12 -14z m-117 -11 c32 -7 60 -17 62 -20 8 -13
-55 -91 -83 -101 -36 -14 -110 -5 -130 15 -21 21 -22 91 -1 112 15 14 17 13
29 -16 12 -28 46 -57 56 -48 2 3 0 18 -5 34 -8 30 -3 63 8 47 3 -5 32 -15 64
-23z m582 -103 c-5 -20 -15 -27 -39 -31 -50 -6 -86 -5 -86 4 0 9 14 14 67 25
20 4 35 14 39 27 9 30 27 7 19 -25z"/>
<path d="M95 214 c13 -13 16 -34 14 -93 l-2 -76 56 1 c31 1 64 7 72 14 22 18
19 57 -7 71 -20 11 -20 13 -5 24 23 16 21 52 -2 65 -11 5 -47 10 -81 10 -57 0
-60 -1 -45 -16z m89 0 c10 -4 16 -18 16 -35 0 -26 -4 -29 -30 -29 -28 0 -30 3
-30 35 0 36 10 42 44 29z m21 -120 c0 -25 -4 -29 -32 -32 -31 -3 -33 -2 -33
31 0 42 5 47 38 38 22 -6 27 -13 27 -37z"/>
<path d="M732 138 c3 -88 4 -93 26 -96 24 -4 29 7 11 25 -7 7 -10 40 -7 87 3
68 1 76 -15 76 -16 0 -17 -9 -15 -92z"/>
<path d="M873 224 c10 -3 17 -15 17 -28 0 -19 -4 -22 -28 -18 -37 5 -57 -19
-57 -69 0 -51 16 -64 76 -65 l50 -1 -3 91 -3 91 -35 2 c-19 1 -27 -1 -17 -3z
m15 -113 c3 -50 2 -52 -20 -49 -19 2 -23 10 -26 47 -2 28 1 47 10 52 24 16 33
3 36 -50z"/>
<path d="M559 198 c-2 -65 4 -134 13 -145 12 -15 54 -17 63 -3 4 6 -5 10 -19
10 -24 0 -26 3 -26 49 0 42 3 50 23 56 l22 8 -22 4 c-15 3 -23 12 -23 24 0 27
-30 24 -31 -3z"/>
<path d="M290 160 c-26 -26 -25 -60 1 -94 22 -28 48 -33 80 -16 28 16 24 32
-5 18 -14 -6 -32 -8 -40 -5 -19 7 -22 49 -3 46 42 -5 67 2 67 20 0 48 -64 67
-100 31z m70 -32 c0 -4 -11 -8 -25 -8 -18 0 -25 5 -25 19 0 11 6 21 13 24 12
5 37 -19 37 -35z"/>
<path d="M433 174 c-7 -3 -13 -17 -13 -30 0 -18 9 -29 35 -41 19 -9 35 -23 35
-30 0 -19 -47 -16 -60 5 -9 15 -10 14 -8 -8 2 -20 9 -26 34 -28 38 -4 78 26
69 50 -4 9 -22 22 -41 28 -35 12 -45 34 -19 44 9 3 25 -4 36 -15 l21 -21 -4
24 c-2 19 -10 23 -38 25 -19 1 -41 0 -47 -3z"/>
<path d="M976 164 c-9 -9 -16 -32 -16 -54 0 -31 5 -43 26 -56 29 -19 74 -10
82 16 4 12 2 13 -9 3 -16 -15 -58 -17 -60 -3 -5 32 -2 35 36 35 47 0 58 22 26
54 -25 25 -63 27 -85 5z m64 -25 c0 -14 -7 -19 -25 -19 -26 0 -33 18 -14 37
16 16 39 5 39 -18z"/>
<path d="M1103 165 c-9 -24 5 -30 26 -11 17 16 20 16 35 1 20 -21 12 -35 -19
-35 -22 0 -55 -23 -55 -38 1 -25 23 -37 70 -38 l50 -1 0 52 c0 38 -5 56 -18
68 -24 22 -81 22 -89 2z m73 -71 c-3 -9 -6 -20 -6 -25 0 -5 -9 -9 -20 -9 -13
0 -20 7 -20 18 0 24 9 32 33 32 13 0 17 -5 13 -16z"/>
</g>
</svg>
